<svg id="Layer_1" data-name="Layer 1" xmlns="http://www.w3.org/2000/svg" viewBox="0 0 1117 328"><defs><style>.cls-1{font-size:118.01px;font-family:Lato-Regular, Lato;}.cls-1,.cls-3,.cls-5{fill:#25b7ab;}.cls-2{letter-spacing:-0.02em;}.cls-3{opacity:0.5;}.cls-4{fill:#239cce;}.cls-6{fill:#7ec44e;}</style></defs><title>problema.ms.logo</title><text class="cls-1" transform="translate(322.44 205.62)">p<tspan class="cls-2" x="66.14" y="0">r</tspan><tspan x="106.68" y="0">oblema.ms</tspan></text><path class="cls-3" d="M240.31,120.39c-.06-.17-.13-.34-.18-.51v0h0c-6.05-19.15-24.57-33.1-46.52-33.1s-40.47,14-46.52,33.1h0v0c-.06.17-.13.34-.18.51l.18-.07V216.5h93.07V120.32Z"/><polygon class="cls-4" points="137.34 122.23 165.81 108.76 165.81 138.18 136.58 146.44 137.34 122.23"/><polygon class="cls-4" points="165.81 144.24 136.58 151.86 136.58 236.26 166.6 229.58 165.81 144.24"/><rect class="cls-5" x="172.15" y="107.03" width="42.69" height="30.87"/><rect class="cls-5" x="172.15" y="144.24" width="42.69" height="85.34"/><polygon class="cls-6" points="249.66 122.23 221.19 108.76 221.19 138.18 250.42 146.44 249.66 122.23"/><polygon class="cls-6" points="221.19 144.24 250.42 151.86 250.42 236.26 220.4 229.58 221.19 144.24"/></svg>